<?xml version="1.0" encoding="UTF-8" standalone="no"?>
<!-- Created with Inkscape (http://www.inkscape.org/) -->

<svg
   xmlns:dc="http://purl.org/dc/elements/1.1/"
   xmlns:cc="http://creativecommons.org/ns#"
   xmlns:rdf="http://www.w3.org/1999/02/22-rdf-syntax-ns#"
   xmlns:svg="http://www.w3.org/2000/svg"
   xmlns="http://www.w3.org/2000/svg"
   xmlns:sodipodi="http://sodipodi.sourceforge.net/DTD/sodipodi-0.dtd"
   xmlns:inkscape="http://www.inkscape.org/namespaces/inkscape"
   id="svg3071"
   version="1.1"
   inkscape:version="0.48.0 r9654"
   width="90"
   height="90"
   sodipodi:docname="prosit3.png">
  <metadata
     id="metadata3077">
    <rdf:RDF>
      <cc:Work
         rdf:about="">
        <dc:format>image/svg+xml</dc:format>
        <dc:type
           rdf:resource="http://purl.org/dc/dcmitype/StillImage" />
        <dc:title></dc:title>
      </cc:Work>
    </rdf:RDF>
  </metadata>
  <defs
     id="defs3075" />
  <sodipodi:namedview
     pagecolor="#000000"
     bordercolor="#666666"
     borderopacity="1"
     objecttolerance="10"
     gridtolerance="10"
     guidetolerance="10"
     inkscape:pageopacity="0"
     inkscape:pageshadow="2"
     inkscape:window-width="1024"
     inkscape:window-height="576"
     id="namedview3073"
     showgrid="false"
     inkscape:zoom="3.2111111"
     inkscape:cx="54.281824"
     inkscape:cy="45"
     inkscape:window-x="0"
     inkscape:window-y="24"
     inkscape:window-maximized="1"
     inkscape:current-layer="svg3071" />
  <g
     id="g3720"
     transform="translate(0.31141868,0)">
    <rect
       y="8.0968857"
       x="16.816608"
       height="28.027681"
       width="36.435986"
       id="rect3718"
       style="fill:#ffffff" />
    <g
       transform="translate(-105.88235,11.211073)"
       id="g3674">
      <path
         inkscape:connector-curvature="0"
         id="path3712"
         d="m 145.88235,73.823874 0,-4.965053 -1.4597,-4.284947 -1.4597,-4.284947 -6.5403,-9.910345 c -3.59716,-5.45069 -6.5403,-10.301041 -6.5403,-10.778558 0,-0.477517 -2.61122,-5.017861 -5.8027,-10.089655 -3.19149,-5.071793 -6.06353,-9.896442 -6.38231,-10.721442 -0.31878,-0.825 -3.1052,-5.325 -6.19205,-10 l -5.61246,-8.5 -0.005,-1.75 -0.005,-1.75 43.41821,0 43.41821,0 1.58179,0.6069888 c 0.86999,0.3338438 1.58179,1.0473108 1.58179,1.5854822 0,0.538171 -2.7,4.98763 -6,9.887686 -3.3,4.900056 -6,9.160938 -6,9.468627 0,0.307689 -2.925,5.219067 -6.5,10.914173 -3.575,5.695105 -6.5,10.624868 -6.5,10.955027 0,0.330159 -2.54859,4.533678 -5.66353,9.341153 l -5.66352,8.740863 -1.83648,5.839094 -1.83647,5.839095 0,4.410905 0,4.410906 -5,0 -5,0 0,-4.965053 z m -7.54949,-60.954872 0.56855,-0.919925 -2.50953,-1.973995 -2.50953,-1.973995 0,-1.547063 c 0,-0.850885 0.45,-1.825178 1,-2.165097 l 1,-0.618034 0,-1.940983 0,-1.940983 -2.06127,0 -2.06128,0 0.69757,4.75 c 0.38367,2.6125 1.0751,5.7625 1.53653,7 l 0.83895,2.25 1.46573,0 c 0.80616,0 1.72158,-0.413966 2.03428,-0.919925 z"
         style="fill:#f2f2f2" />
      <path
         inkscape:connector-curvature="0"
         id="path3710"
         d="m 145.88235,73.823874 0,-4.965053 -1.54547,-4.552088 -1.54548,-4.552088 -4.33236,-6.232859 c -2.3828,-3.428072 -5.64703,-8.707859 -7.25383,-11.732859 -3.79497,-7.14449 -12.21582,-21.171348 -19.51096,-32.5 l -5.7956,-9 -0.008,-1.75 -0.008,-1.75 43.75,0.015313 43.75,0.015313 1.35324,0.8575133 1.35325,0.8575133 -1.2336,2.3771739 c -0.67847,1.307446 -3.87493,6.295357 -7.10324,11.0842465 -3.22831,4.78889 -5.86965,9.027531 -5.86965,9.419201 0,0.66418 -1.95897,3.93773 -17.36648,29.020298 l -5.86648,9.550305 -1.37165,5.151562 -1.37165,5.151562 -0.0119,4.25 -0.0119,4.25 -2.5,0 -2.5,0 -0.17471,-4.25 -0.1747,-4.25 -0.3828,4.25 -0.38279,4.25 -1.9425,0 -1.9425,0 0,-4.965053 z m -2,-27.593964 c 0,-0.242541 -0.45,-0.440983 -1,-0.440983 l -1,0 0,1.059017 0,1.059017 1,-0.618034 c 0.55,-0.339919 1,-0.816476 1,-1.059017 z m -0.5,-3.440983 c -0.33992,-0.55 -0.81648,-1 -1.05902,-1 -0.24254,0 -0.44098,0.45 -0.44098,1 l 0,1 1.05902,0 1.05901,0 -0.61803,-1 z m -6.45416,-2.914354 -1.11621,-2.085646 -1.02383,0 -1.02383,0 0.71471,1.25 c 2.29953,4.021738 4.56865,4.795959 2.44916,0.835646 z m 42.32227,-21.459072 7.71627,-12.873426 -0.36755,-1.102648 -0.36755,-1.102648 -2.89087,4.976074 c -1.58998,2.736841 -3.43783,5.539973 -4.10632,6.229183 -0.6685,0.689209 -3.13287,4.851709 -5.47637,9.25 -2.34351,4.39829 -4.62425,7.996891 -5.06832,7.996891 l -0.8074,0 0,2.134859 0,2.134858 1.82592,-2.384858 c 1.00425,-1.311673 5.29824,-8.177901 9.54219,-15.258285 z m -37.00648,9.873426 c -0.31659,-0.825 -0.75246,-1.5 -0.96862,-1.5 -0.21615,0 -0.39301,0.675 -0.39301,1.5 l 0,1.5 0.96861,0 0.96862,0 -0.5756,-1.5 z m 23.63837,-2.440983 c 0,-0.517541 -0.47994,-1.237602 -1.06653,-1.600136 l -1.06653,-0.659152 -0.53361,0.533604 -0.5336,0.533605 0.65915,1.066531 c 0.81471,1.318224 2.54112,1.40352 2.54112,0.125548 z m -39,-3.601839 c 0,-0.65962 -5.89388,-11.615781 -8.85317,-16.457178 l -2.13935,-3.5 -0.004,1.710472 -0.004,1.710471 4.679,8.539529 c 3.979,7.261981 6.321,10.224848 6.321,7.996706 z m 42.7974,-9.207178 c 1.48547,-3.927793 2.58912,-8.428002 2.63638,-10.75 l 0.0407,-2 -17.38616,0.205485 -17.38617,0.205486 -1.90973,-1.022059 -1.90973,-1.0220584 -2.94135,0.6460284 -2.94135,0.646029 0,0.962358 c 0,0.529297 -0.9,1.928394 -2,3.109106 -1.1,1.180711 -1.99785,2.399395 -1.99522,2.708186 0.003,0.308792 1.60461,2.303439 3.55997,4.43255 l 3.55519,3.87111 3.69003,-0.610105 c 2.02952,-0.335557 4.81503,-0.634945 6.19003,-0.665306 l 2.5,-0.0552 -3.57129,-1.888011 c -1.9642,-1.038408 -4.15205,-2.587789 -4.86187,-3.443071 l -1.29058,-1.555058 0.5443,-1.418439 0.54431,-1.418439 2.90425,-0.63788 2.90425,-0.63788 4.91332,1.641318 c 2.70233,0.902724 7.61332,2.913065 10.91332,4.467424 3.3,1.554359 6.675,2.972879 7.5,3.152267 l 1.5,0.326159 0.71778,1.75 c 0.39477,0.9625 1.12768,1.75 1.62867,1.75 l 0.91091,0 1.04004,-2.75 z"
         style="fill:#ececec" />
      <path
         inkscape:connector-curvature="0"
         id="path3708"
         d="m 145.87677,74.038927 -0.006,-4.75 -1.10506,-4 -1.10506,-4 -5.63936,-8.696768 c -3.10163,-4.783222 -8.97932,-14.458222 -13.06153,-21.5 -4.0822,-7.041777 -9.80416,-16.487957 -12.71546,-20.991509 -2.91129,-4.503553 -5.58259,-9.341053 -5.93621,-10.75 l -0.64296,-2.561723 43.85841,0.015313 43.85841,0.015313 1.31454,0.8335947 1.31455,0.8335947 -2.60071,4.6583151 c -1.43039,2.562073 -4.42646,7.2425645 -6.65794,10.4010925 -2.23147,3.158528 -4.45278,6.751916 -4.93624,7.985309 -0.48346,1.233392 -3.59143,6.504743 -6.90661,11.714114 -3.31517,5.20937 -6.02759,9.737631 -6.02759,10.062803 0,0.325171 -2.28891,4.159435 -5.08648,8.520587 l -5.08647,7.929366 -1.40166,5.265299 -1.40165,5.265299 -0.0119,4.25 -0.0119,4.25 -1.43873,0 -1.43872,0 -0.63593,-4.75 c -0.34975,-2.612499 -0.83792,-5.376908 -1.08481,-6.143128 l -0.44889,-1.393128 -0.55149,0.551496 c -0.76862,0.768617 -1.23504,3.579544 -1.32492,7.98476 l -0.0765,3.75 -1.5,0 -1.5,0 -0.006,-4.75 z m 11.21469,-25.122681 -0.2909,-1.372681 1.46778,0.56324 1.46778,0.56324 1.16588,-1.40479 1.16587,-1.40479 -3.13743,0.397065 -3.13743,0.397065 -4.97749,-1.478156 -4.97749,-1.478155 -1.13235,0.69983 -1.13235,0.69983 0.64877,-1.049724 0.64876,-1.049723 -1.5845,-0.60803 -1.58449,-0.608029 -0.98968,0.611653 -0.98967,0.611653 -1.47137,-2.100672 c -0.80925,-1.155369 -2.37559,-2.584595 -3.48075,-3.176058 l -2.00938,-1.075386 1.57815,3.0518 c 0.86798,1.678491 3.13068,4.604333 5.02822,6.501872 l 3.45007,3.45007 3.28244,0.428227 c 1.80535,0.235525 5.08245,0.377625 7.28245,0.315778 l 4,-0.112448 -0.29089,-1.372681 z m -3.20911,-0.127319 c -0.79314,-0.49019 -1.21708,-1.116254 -0.94208,-1.391254 0.275,-0.275 1.14894,-0.09894 1.94208,0.391254 0.79314,0.49019 1.21708,1.116254 0.94208,1.391254 -0.275,0.275 -1.14894,0.09894 -1.94208,-0.391254 z m -10,-0.440983 c 0,-0.242541 0.45,-0.719098 1,-1.059017 l 1,-0.618034 0,1.059017 0,1.059017 -1,0 c -0.55,0 -1,-0.198442 -1,-0.440983 z m -2.92105,-2.975684 -0.0789,-1.916666 0.60417,0.604166 0.60416,0.604167 -0.52522,1.3125 -0.52522,1.3125 -0.0789,-1.916667 z m 38.50684,-26.198289 c 0.83266,-1.713225 2.50399,-4.177664 3.71407,-5.47653 1.21008,-1.298866 2.20014,-2.597136 2.20014,-2.885044 0,-0.287909 0.35886,-0.403849 0.79747,-0.257647 l 0.79747,0.265824 -0.25727,-1.265824 c -0.32726,-1.610155 2.00631,-5.895214 4.07567,-7.48402 0.87266,-0.670008 1.36166,-1.247478 1.08666,-1.283267 -0.275,-0.035788 -11.975,-0.283253 -26,-0.549921 -14.025,-0.266669 -27.17862,-0.705596 -29.23026,-0.975394 l -3.73025,-0.4905417 -4.71633,1.0569507 -4.71632,1.05695 -6.80342,0.0215 c -3.74188,0.011829 -6.80342,0.248801 -6.80342,0.526607 0,0.277806 1.93787,3.508899 4.30638,7.180207 2.36851,3.671308 5.36466,8.566764 6.65811,10.87879 l 2.35173,4.203683 1.2907,0.495288 1.2907,0.495287 0.64249,-2.024331 0.6425,-2.024332 -0.54843,-0.548433 -0.54843,-0.548433 3.59503,-2.439654 3.59503,-2.439654 4.99093,-0.591103 4.99094,-0.591102 -2.87884,-1.470609 c -3.8015,-1.941933 -6.37884,-4.250962 -6.37884,-5.714764 l 0,-1.184497 2.25,-1.023407 2.25,-1.023407 2.89902,0.310561 c 1.59446,0.170808 6.31947,1.703326 10.5,3.405595 l 7.60098,3.095035 4,2.940133 c 2.2,1.617073 5.00502,3.466681 6.23338,4.110239 l 2.23338,1.170105 0.64845,3.456563 0.64846,3.456563 -0.90493,0.640495 c -0.49772,0.352272 -1.68204,1.862163 -2.63184,3.355312 l -1.7269,2.714816 0.003,2.785184 0.003,2.785183 5.0334,-7.5 c 2.76836,-4.125 5.71466,-8.90173 6.54732,-10.614956 z m -5.94742,0.114956 0.57561,-1.5 -1,0 c -0.55,0 -1.25902,-0.675 -1.57561,-1.5 l -0.5756,-1.5 1.46861,0 1.46862,0 0,1.416667 0,1.416666 1.17705,0.392351 1.17705,0.39235 -0.73607,1.190983 c -0.40483,0.655041 -1.14538,1.190983 -1.64566,1.190983 l -0.9096,0 0.5756,-1.5 z m -47.43837,-4.7 c -0.66,-0.66 -1.2,-1.5975 -1.2,-2.083333 l 0,-0.883334 1.16263,0.387543 1.16262,0.387542 0.24889,1.695791 c 0.29621,2.018211 0.1875,2.057434 -1.37414,0.495791 z m 50.39105,0.347322 -0.52698,-0.852678 1.37345,-1.878306 1.37345,-1.878305 -0.52206,2.730984 c -0.55554,2.906127 -0.85672,3.239306 -1.69786,1.878305 z m -53.93534,-4.692506 0.55386,-1.443329 0.89521,0.553274 c 1.24011,0.766426 1.12596,1.132717 -0.55385,1.777323 l -1.44907,0.556061 0.55385,-1.443329 z m 53.61512,-1.058983 0.60417,-0.604166 1.3125,0.525219 1.3125,0.525219 -1.91667,0.078948 -1.91666,0.078947 0.60416,-0.604167 z m 4.22917,-1.395833 -0.61803,-1 1.05901,0 1.05902,0 0,1 c 0,0.55 -0.19844,1 -0.44098,1 -0.24254,0 -0.7191,-0.45 -1.05902,-1 z m -62.5,-2.940983 c 0,-0.517541 0.45,-1.219098 1,-1.559017 l 1,-0.618034 0,1.559017 0,1.559017 -1,0 c -0.55,0 -1,-0.423442 -1,-0.940983 z m 34.8,28.740983 c 0.66,-0.66 1.2,-1.960055 1.2,-2.889011 l 0,-1.689012 -4.25,-2.011356 -4.25,-2.011357 -0.31955,1.900368 -0.31955,1.900368 -0.93045,0 -0.93045,0 0,-2.059017 0,-2.059017 -1,0.618034 -1,0.618034 0,1.921816 0,1.921816 4.75,2.472606 c 5.60758,2.91902 5.5147,2.901026 7.05,1.365728 z m 15.2,-6.838693 0,-0.920659 -4.19355,-2.139389 -4.19355,-2.139389 3.36773,3.570435 3.36772,3.570435 0.82583,-0.510387 c 0.4542,-0.280713 0.82582,-0.924684 0.82582,-1.431046 z"
         style="fill:#e9e9e9" />
      <path
         inkscape:connector-curvature="0"
         id="path3706"
         d="m 145.87677,74.038927 -0.006,-4.75 -1.10506,-4 -1.10506,-4 -5.63936,-8.651889 C 132.9429,44.845139 129.50653,39.077011 120.5398,23.292716 118.9764,20.540632 115.27945,14.604202 112.32435,10.10065 l -5.37291,-8.188277 -0.64295,-2.561723 -0.64296,-2.561723 43.85841,0.015313 43.85841,0.015313 1.31454,0.8335947 1.31455,0.8335947 -2.60071,4.6583151 c -1.43039,2.562073 -4.42646,7.2425645 -6.65794,10.4010925 -2.23147,3.158527 -4.45278,6.751916 -4.93624,7.985308 -0.48346,1.233392 -3.59143,6.504743 -6.90661,11.714115 -3.31517,5.20937 -6.02759,9.737631 -6.02759,10.062803 0,0.325171 -2.28891,4.159435 -5.08648,8.520587 l -5.08647,7.929366 -1.40166,5.265299 -1.40165,5.265299 -0.0119,4.25 -0.0119,4.25 -1.5,0 -1.5,0 0,-4.418212 c 0,-2.430016 -0.27315,-5.130016 -0.60699,-6 l -0.60699,-1.581788 -1.39301,0 -1.39301,0 0,6 0,6 -1.5,0 -1.5,0 -0.006,-4.75 z m 14.56849,-26.318658 2.93709,-3.068658 -2.5,0.893255 -2.5,0.893256 -3.04216,-0.295605 -3.04215,-0.295605 -7.19122,-2.965421 -7.19122,-2.965421 -3.75869,-2.813572 -3.75869,-2.813571 1.8744,3 c 1.03092,1.65 2.99197,4.500812 4.35789,6.335139 l 2.4835,3.335138 3.13417,1.911124 3.13417,1.911123 6.06291,0.0037 6.06291,0.0038 2.93709,-3.068658 z m 19.98772,-28.485902 11.74025,-17.554559 -0.91374,-0.913739 -0.91374,-0.913739 -27.9817,-0.421467 c -15.38993,-0.231807 -28.6567,-0.438911 -29.4817,-0.460232 -0.825,-0.02132 -6.59047,0.182657 -12.81216,0.453283 l -11.31216,0.492047 0.31216,0.787586 c 0.17169,0.433173 3.89587,6.473189 8.27595,13.422259 l 7.96379,12.634671 1.53621,-4.132713 1.53621,-4.132713 2.82647,-2.103062 2.82647,-2.103062 5.74993,0.03211 5.74992,0.03211 -4.74687,-2.199259 -4.74687,-2.199259 -1.16055,-2.168494 c -1.28196,-2.395372 -1.31577,-2.311113 1.5015,-3.742334 l 2,-1.016036 3,0.355708 c 6.40864,0.759868 22.21127,8.583266 27.82557,13.775593 l 3.82557,3.538036 -0.32557,2.295912 -0.32557,2.295913 -2.02557,0.29014 -2.02556,0.290141 -4.97444,-2.560618 -4.97443,-2.560618 2.18176,1.875515 c 1.19997,1.031533 3.33747,3.578543 4.75,5.660024 l 2.56824,3.78451 0,2.360453 c 0,1.298249 0.18234,2.360453 0.40519,2.360453 0.22286,0 5.6883,-7.899552 12.14544,-17.55456 z m -27.75063,14.35456 c 0.66,-0.66 1.18586,-1.8975 1.16857,-2.75 l -0.0314,-1.55 -2.44229,-1.776857 -2.44229,-1.776856 -3.77628,-0.223144 -3.77629,-0.223143 0,2.5 0,2.5 4.46189,2.25 c 5.18839,2.616354 5.26066,2.627451 6.83811,1.05 z m 4.7,-13.8 c -0.33992,-0.55 -1.15398,-0.993109 -1.80902,-0.984687 l -1.19098,0.01531 1.5,0.969374 c 1.92112,1.241525 2.2673,1.241525 1.5,0 z"
         style="fill:#e4e4e4" />
      <path
         inkscape:connector-curvature="0"
         id="path3704"
         d="m 145.88235,73.947858 0,-4.841069 -1.3507,-4.408931 -1.3507,-4.408931 -5.1493,-7.428062 c -2.83212,-4.085435 -5.1493,-7.802798 -5.1493,-8.260808 0,-0.45801 -2.925,-5.564847 -6.5,-11.348527 -3.575,-5.78368 -6.5,-10.752764 -6.5,-11.04241 0,-0.289645 -1.99422,-3.581579 -4.4316,-7.315409 -5.53742,-8.482794 -9.5684,-15.664458 -9.5684,-17.047228 l 0,-1.057556 43.75,0.015313 43.75,0.015313 1.31454,0.8335947 1.31455,0.8335947 -2.49845,4.4751561 c -1.37415,2.4613355 -4.7782,7.7844555 -7.56455,11.8291545 -2.78635,4.044699 -5.06609,7.740019 -5.06609,8.211822 0,0.471803 -2.7,5.100527 -6,10.286052 -3.3,5.185525 -6,9.694277 -6,10.019448 0,0.325171 -2.28891,4.159435 -5.08648,8.520587 l -5.08647,7.929366 -1.40166,5.2653 -1.40165,5.265299 -0.0119,4.25 -0.0119,4.25 -1.5,0 -1.5,0 0,-6 0,-6 -2,0 -2,0 0,6 0,6 -1.5,0 -1.5,0 0,-4.841069 z m 13.57649,-25.408931 3.54712,-3.25 -5.17046,0.353841 -5.17045,0.353841 -6.64135,-2.764398 -6.64135,-2.764399 -4.82055,-3.388466 -4.82056,-3.388467 3.95916,5.799024 c 2.17754,3.189463 5.15981,6.913937 6.62726,8.27661 l 2.6681,2.477585 5.19329,0.631616 c 2.85632,0.34739 5.76241,0.694976 6.45799,0.772415 l 1.26468,0.140798 3.54712,-3.25 z m 15.58932,-20.75 c 9.39877,-13.447128 18.11395,-27.053569 17.63506,-27.53246 -0.28348,-0.283479 -38.60336,-1.244702 -59.80087,-1.5000553 -5.5943,-0.067391 -24,1.2952773 -24,1.7768423 0,0.284619 3.67279,6.365572 8.16175,13.513229 l 8.16176,12.995741 1.58824,-4.273586 1.58825,-4.273587 2.82937,-2.103062 2.82937,-2.103062 6.13916,0.11723 6.13916,0.11723 -4.96853,-2.383179 -4.96853,-2.383179 -1.25,-1.675181 c -1.72001,-2.305058 -1.59087,-2.819096 1,-3.980461 l 2.25,-1.008571 2.97363,0.412215 c 1.6355,0.226718 6.27882,1.788166 10.31849,3.469884 l 7.34486,3.05767 6.01651,4.017673 6.01651,4.017673 1.04646,2.296728 1.04646,2.296728 -0.60008,1.56377 -0.60007,1.56377 -1.69834,0 -1.69834,0 -6.36747,-3.5 c -7.49323,-4.118799 -9.36248,-4.578648 -3.70795,-0.912185 l 3.991,2.587814 2.43644,3.555748 2.43643,3.555748 0,3.795831 c 0,2.087708 0.0838,3.710605 0.18619,3.606438 0.1024,-0.104167 3.48869,-4.914394 7.52508,-10.689394 z m -21.41648,4 0.24932,-2.5 -2.63341,-1.897829 -2.63342,-1.897829 -3.61591,-0.102171 -3.61591,-0.102171 -0.2953,2.53105 -0.29529,2.53105 4.29529,2.176502 4.2953,2.176502 2,-0.207552 2,-0.207552 0.24933,-2.5 z"
         style="fill:#ffffff" />
      <path
         inkscape:connector-curvature="0"
         id="path3702"
         d="m 145.85849,74.038927 c -0.0131,-2.6125 -0.42,-6.456424 -0.90417,-8.542054 L 144.074,61.70482 139.14179,54.496873 c -2.71272,-3.96437 -5.17512,-7.882946 -5.47201,-8.707946 -0.59817,-1.66219 -10.83215,-18.883907 -18.95977,-31.905451 -6.21653,-9.959724 -8.82766,-14.719253 -8.82766,-16.0909246 l 0,-1.0036244 43.75,0.015313 43.75,0.015313 1.39172,0.8812912 1.39172,0.8812912 -1.979,2.8533961 c -1.08844,1.5693675 -2.22193,3.5283955 -2.51886,4.3533955 -0.29693,0.825 -2.84516,4.842628 -5.66273,8.928062 -2.81757,4.085435 -5.12285,7.817021 -5.12285,8.292415 0,0.475393 -3.15,5.807426 -7,11.848962 -3.85,6.041535 -7,11.278576 -7,11.637867 0,0.359292 -1.87456,3.530444 -4.16569,7.047004 l -4.16569,6.393746 -1.33431,5.1439 -1.33431,5.143901 0,4.282071 0,4.282072 -1.45228,0 -1.45229,0 -0.29771,-6.239957 -0.29772,-6.239957 -1.75,-0.333367 -1.75,-0.333367 0,6.573324 0,6.573324 -1.5,0 -1.5,0 -0.0239,-4.75 z m 5.77386,-17.939326 c -0.9625,-0.251527 -2.5375,-0.251527 -3.5,0 l -1.75,0.457323 3.5,0 3.5,0 -1.75,-0.457323 z m 8.01062,-7.560674 3.15296,-3.25 -5.33704,0.335607 -5.33705,0.335607 -7.86975,-3.628874 -7.86974,-3.628875 -3.90247,-3.126382 -3.90247,-3.126382 4.02793,5.919649 c 2.21536,3.255808 5.27945,7.166266 6.80909,8.689907 l 2.78116,2.770258 2.59338,0.567213 c 1.42636,0.311968 3.04338,0.717326 3.59338,0.900796 0.55,0.18347 2.59922,0.369108 4.55383,0.412529 l 3.55384,0.07895 3.15295,-3.25 z m 22.09977,-30.25 11.99348,-18 -12.17694,-0.660356 c -6.69731,-0.363196 -23.20193,-0.700485 -36.67693,-0.749531 l -24.5,-0.089174 -6.14176,0.749531 -6.14176,0.74953 8.81929,13.844197 c 4.85061,7.614308 9.13281,14.139308 9.51599,14.5 l 0.6967,0.655803 -0.66832,-2.176596 -0.66832,-2.176596 1.46056,-3.495623 1.46057,-3.495623 2.33352,-1.46554 c 1.28344,-0.806047 3.93524,-1.745344 5.89288,-2.087328 l 3.55935,-0.621787 4.69065,1.411678 c 2.57986,0.776424 4.69065,1.299154 4.69065,1.161622 0,-0.137531 -3.32723,-1.894462 -7.39384,-3.90429 l -7.39384,-3.654234 -0.56427,-1.470476 -0.56428,-1.470475 2.05976,-1.442713 2.05976,-1.442713 2.56492,0.465107 c 7.67161,1.391129 22.30707,8.374857 28.44009,13.571005 l 2.7083,2.294582 0.64777,2.740682 0.64777,2.740682 -1.62764,0.624585 -1.62764,0.624584 -8.22843,-4.118635 c -4.52564,-2.265249 -7.36407,-3.554619 -6.30763,-2.865266 1.05644,0.689352 3.59768,2.726441 5.64721,4.526864 l 3.72641,3.273496 1.56785,3.304002 1.56785,3.304002 -0.52002,2.922502 -0.52001,2.922502 1.48841,-1.5 c 0.81863,-0.825 6.88548,-9.6 13.48189,-19.5 z m -28.04631,13.274271 0.31408,-2.725729 -3.31408,-2.046306 -3.31408,-2.046305 -3,0.272034 -3,0.272035 -0.29498,2.52774 -0.29497,2.527741 3.79497,2.223189 3.79498,2.22319 2.5,-0.25093 2.5,-0.25093 0.31408,-2.725729 z"
         style="fill:#d3d3d3" />
      <path
         inkscape:connector-curvature="0"
         id="path3700"
         d="m 145.85849,74.038927 c -0.0131,-2.6125 -0.41596,-6.438547 -0.89521,-8.502326 l -0.87136,-3.752327 -4.44722,-6.747673 c -5.16891,-7.842664 -17.76235,-28.911933 -17.76235,-29.717033 0,-0.301794 -2.475,-4.34592 -5.5,-8.986947 -3.025,-4.641028 -5.5,-8.710835 -5.5,-9.044017 0,-0.333181 -1.125,-2.261371 -2.5,-4.284865 -1.375,-2.023495 -2.5,-4.2496205 -2.5,-4.9469465 l 0,-1.2678655 12.75,0.015313 12.75,0.015313 -1.5,0.9693745 -1.5,0.9693745 -8.5,0.085597 -8.5,0.085599 -1.75193,0.693478 -1.75194,0.693478 13.73631,21.486237 13.7363,21.486236 4.35741,4.25 4.3574,4.25 6.15823,-0.02224 6.15822,-0.02224 2.04322,-1.727764 c 1.12377,-0.95027 2.54876,-2.402764 3.16665,-3.227764 l 1.12344,-1.5 -4.797,0.338444 -4.797,0.338443 -7.17637,-3.015191 -7.17638,-3.015192 -4.42921,-3.323252 -4.42922,-3.323252 -2.06973,-4.180719 -2.06974,-4.18072 2.00297,-3.926128 2.00296,-3.926128 2.88007,-1.192967 c 1.58404,-0.656131 4.19526,-1.336546 5.80271,-1.512033 l 2.92263,-0.319067 4.5,1.358057 c 2.475,0.746931 4.725,1.345521 5,1.3302 0.275,-0.01532 -3.24024,-1.83756 -7.81166,-4.04942 l -8.31165,-4.021562 0.31165,-2.189757 0.31166,-2.189756 5.02635,0.03065 5.02636,0.03065 5.47364,2.322127 c 3.01051,1.27717 8.45471,4.144577 12.09822,6.372017 l 6.62458,4.049889 1.62866,2.757111 1.62867,2.757111 -0.62167,1.620027 -0.62166,1.620027 -2.13158,-0.635663 c -1.17236,-0.349622 -5.61907,-2.391592 -9.88157,-4.537718 -4.2625,-2.146127 -7.75,-3.682635 -7.75,-3.414462 0,0.268172 1.75165,1.381211 3.89255,2.473419 l 3.89256,1.985833 3.55317,4.151085 3.55318,4.151085 0.33515,2.133406 c 0.18433,1.173373 0.0187,3.650925 -0.36799,5.50567 l -0.70315,3.372264 0.74532,-0.872264 c 1.98182,-2.319359 15.48991,-21.941319 20.90879,-30.372264 l 6.10599,-9.5 -2.20778,-0.65032 -2.20779,-0.65032 -26.30902,-0.09968 -26.30901,-0.09968 0.52044,-0.8420903 0.52044,-0.8420902 27.84443,-0.086915 27.84443,-0.086915 1.33586,0.8256095 1.33587,0.8256095 -2.14172,3.0077661 c -1.17795,1.6542714 -2.14172,3.3571014 -2.14172,3.7840674 0,0.426965 -2.19069,3.957499 -4.86819,7.845629 -2.67751,3.888131 -5.833,8.974673 -7.01221,11.303427 -1.17921,2.328753 -4.64449,8.11014 -7.70062,12.847526 -3.05613,4.737386 -5.83802,9.357042 -6.18198,10.265902 -0.34395,0.908861 -2.30458,4.258043 -4.35693,7.442627 l -3.73156,5.790152 -1.07426,5.009069 c -0.59084,2.754987 -1.07425,6.786919 -1.07425,8.959847 l 0,3.950779 -0.95228,0 -0.95229,0 -0.29771,-6.239957 -0.29772,-6.239957 -1.88017,-0.358436 -1.88018,-0.358436 -0.85451,1.348393 -0.85451,1.348393 -0.0153,5.25 -0.0153,5.25 -1,0 -1,0 -0.0239,-4.75 z m 6.27386,-17.955733 c -1.2375,-0.238353 -3.2625,-0.238353 -4.5,0 l -2.25,0.433369 4.5,0 4.5,0 -2.25,-0.433369 z m 1.56408,-24.519996 0.31408,-2.725729 -3.31408,-2.020533 -3.31408,-2.020533 -2.71482,-0.0037 -2.71481,-0.0037 -0.96541,1.803882 -0.96541,1.803882 0.68022,1.070274 c 0.37413,0.588651 2.25523,2.036172 4.18023,3.216714 l 3.5,2.14644 2.5,-0.270596 2.5,-0.270596 0.31408,-2.725729 z"
         style="fill:#c8c8c8" />
      <path
         inkscape:connector-curvature="0"
         id="path3698"
         d="m 145.60158,71.259547 -0.56944,-7.529379 -1.8249,-2.927792 c -6.49141,-10.414578 -21.32489,-35.138051 -21.32489,-35.542923 0,-0.26873 -2.475,-4.285805 -5.5,-8.926832 -3.025,-4.641028 -5.5,-8.710835 -5.5,-9.044017 0,-0.333181 -1.125,-2.261371 -2.5,-4.284865 -1.375,-2.023495 -2.5,-4.2496205 -2.5,-4.9469465 l 0,-1.2678655 8.75,0.015313 8.75,0.015313 1.5,0.9693745 1.5,0.9693745 -9.35699,0.015313 -9.35699,0.015313 0.67065,1.747684 c 0.91455,2.383272 22.01688,35.510176 26.69477,41.906038 l 3.7694,5.153722 2.78958,1.975438 2.78958,1.975438 5.16071,0.702398 5.16071,0.702397 2.61516,-1.713518 c 1.43834,-0.942435 3.57124,-3.056214 4.73979,-4.697287 l 2.12463,-2.983769 -2.29631,1.228948 -2.29631,1.228949 -4.60419,-0.448256 -4.60419,-0.448255 -7.5,-3.671292 c -7.80408,-3.820138 -11.34726,-6.460931 -14.27284,-10.63778 l -1.72716,-2.465867 0,-2.873202 0,-2.873202 1.66527,-2.81908 1.66527,-2.819079 2.38178,-1.085213 2.38179,-1.085212 5.01848,0 5.01849,0 7.18446,3.324204 7.18446,3.324203 3.23555,3.694136 3.23555,3.694136 0.63648,2.535947 0.63649,2.535946 -0.58597,3.695714 -0.58596,3.695714 1.9922,-2.5 c 3.70644,-4.651198 25.93566,-38.141254 25.93566,-39.074092 l 0,-0.925908 -18.25,-0.1648437 -18.25,-0.1648437 10,-0.717699 c 5.5,-0.3947345 13.6,-0.7636641 18,-0.8198435 l 8,-0.1021446 1.39172,0.8812912 1.39172,0.8812912 -2.13516,2.9985551 c -1.17434,1.649206 -2.47985,3.833234 -2.90114,4.853396 -0.42129,1.020163 -3.34924,5.748842 -6.50656,10.508176 -3.15732,4.759333 -5.74058,8.981927 -5.74058,9.38354 0,0.401613 -2.85304,5.282612 -6.34008,10.846665 -3.48705,5.564053 -8.18937,13.26646 -10.44962,17.11646 l -4.10953,7 -1.02594,4.5 c -0.56426,2.475 -1.03694,6.4125 -1.05038,8.75 l -0.0245,4.25 -1,0 -1,0 0,-6.5 0,-6.5 -3,0 -3,0 0,6.5 0,6.5 -0.85566,0 -0.85566,0 -0.56945,-7.52938 z m 7.78077,-14.47062 2,-0.859429 -5,0 -5,0 2,0.859429 c 1.1,0.472686 2.45,0.859429 3,0.859429 0.55,0 1.9,-0.386743 3,-0.859429 z m 0.31408,-25.225729 0.31408,-2.725729 -3.31408,-2.020533 -3.31408,-2.020533 -2.71482,-0.0037 -2.71481,-0.0037 -0.99644,1.86186 -0.99644,1.861859 1.21126,1.530956 c 0.66619,0.842026 2.56125,2.246701 4.21125,3.1215 l 3,1.590544 2.5,-0.233359 2.5,-0.23336 0.31408,-2.725729 z m 5.62837,-11.091455 c -6.01835,-2.948469 -14.00657,-6.818985 -17.75161,-8.601149 l -6.80915,-3.240297 0.30915,-2.170685 0.30916,-2.170685 3.66123,-0.305073 3.66123,-0.305073 7.83877,3.106429 7.83877,3.106429 5.42931,3.748505 5.4293,3.748505 2.02408,2.711037 2.02408,2.711037 -1.51093,1.510936 -1.51094,1.510935 -10.94245,-5.360851 z M 141.61005,-1.932805 c 1.77523,-0.2209119 4.92523,-0.2245416 7,-0.00807 l 3.7723,0.3935958 -7,0.00807 -7,0.00807 3.2277,-0.4016579 z"
         style="fill:#bbbbbb" />
      <path
         inkscape:connector-curvature="0"
         id="path3696"
         d="m 145.67122,71.400756 -0.47414,-7.388171 -1.90737,-3.043785 c -6.32653,-10.095934 -20.02026,-32.955149 -20.6252,-34.430059 -0.39482,-0.962602 -2.55444,-4.51523 -4.79917,-7.89473 -4.37377,-6.584837 -7.30707,-11.855084 -6.59828,-11.855084 0.23984,0 5.52356,7.9875 11.74161,17.75 l 11.30553,17.75 5.32879,5.25 5.3288,5.25 5.37855,0 5.37856,0 3.09927,-2.607861 c 1.70459,-1.434324 3.57318,-3.493386 4.15242,-4.575694 l 1.05315,-1.967833 -2.23497,1.196121 -2.23498,1.196121 -4.84945,-0.574346 -4.84945,-0.574346 -7.96167,-4.142114 -7.96167,-4.142114 -3.5296,-3.906848 -3.5296,-3.906848 0,-3.092827 0,-3.092827 1.66527,-2.81908 1.66527,-2.819079 2.38178,-1.085213 2.38179,-1.085212 5.20294,5.73e-4 5.20295,5.73e-4 7.46699,3.749427 7.46699,3.749427 3.38937,4.467187 3.38937,4.467187 -0.45957,4.782813 c -0.25276,2.630547 -0.32924,4.782813 -0.16996,4.782813 0.41396,0 17.4018,-24.489502 21.33062,-30.75 1.81208,-2.8875 3.45827,-5.25 3.65821,-5.25 0.82687,0 -1.41597,3.990078 -6.83144,12.153335 -3.15732,4.759333 -5.74058,8.981927 -5.74058,9.38354 0,0.401613 -2.85304,5.282612 -6.34008,10.846665 -3.48705,5.564053 -8.17564,13.26646 -10.41911,17.11646 l -4.07903,7 -1.07531,4 -1.07532,4 -0.006,4.75 -0.006,4.75 -1,0 -1,0 0,-6.383369 0,-6.383368 -1.75,-0.453875 c -0.9625,-0.249632 -2.3125,-0.264616 -3,-0.0333 l -1.25,0.420579 0,6.416666 0,6.416667 -0.86849,0 -0.8685,0 -0.47414,-7.388171 z m 8.71113,-14.611829 0.61803,-1 -5.30901,0.07028 -5.30902,0.07029 2,0.859429 c 1.1,0.472686 3.21094,0.891058 4.69098,0.929715 l 2.69099,0.07028 0.61803,-1 z m 7.62755,-4.75 1.37245,-1.75 -2,1.467032 c -1.1,0.806868 -2.1875,1.594368 -2.41667,1.75 -0.22916,0.155633 0.0532,0.282968 0.62756,0.282968 0.57432,0 1.66182,-0.7875 2.41666,-1.75 z m -21.62755,-0.25 c -0.33992,-0.55 -0.81648,-1 -1.05902,-1 -0.24254,0 -0.44098,0.45 -0.44098,1 l 0,1 1.05902,0 1.05901,0 -0.61803,-1 z m 13.31038,-20.187384 0.31038,-2.687385 -2.43769,-1.597233 c -1.34072,-0.878478 -3.81009,-1.990835 -5.48748,-2.471904 l -3.0498,-0.874671 -1.6526,1.826101 -1.6526,1.826102 1.10485,2.064422 1.10484,2.064423 2.72486,1.503596 2.72486,1.503596 3,-0.234832 3,-0.234831 0.31038,-2.687384 z m -0.94702,-14.573657 -17.36336,-8.738959 0,-2 0,-2 5.39253,0.148232 5.39253,0.148232 9.10747,4.547733 9.10747,4.547732 3.75,3.126839 3.75,3.12684 0,2.368179 0,2.368179 -0.88664,0.547976 -0.88665,0.547976 -17.36335,-8.738959 z M 107.96391,2.420893 c -1.14486,-1.852419 -2.08156,-3.8433517 -2.08156,-4.4242957 l 0,-1.0562616 5.25,0.5453296 c 6.73096,0.6991605 7.38763,1.3032617 1.41667,1.3032617 l -4.66667,0 0,1.035183 c 0,0.569351 0.72675,2.144351 1.61501,3.5 0.88826,1.355649 1.37496,2.464817 1.08156,2.464817 -0.2934,0 -1.47015,-1.515615 -2.61501,-3.368034 z m 85.73856,-2.671621 -0.40489,-1.2146548 -16.95762,-0.014448 -16.95761,-0.014448 10.5,-0.7358608 c 5.775,-0.4047234 13.425,-0.7841114 17,-0.8430845 l 6.5,-0.1072237 1.49164,0.9430465 1.49164,0.9430464 -1.12914,1.1291406 -1.12914,1.129141 -0.40488,-1.214655 z"
         style="fill:#b3b3b3" />
      <path
         inkscape:connector-curvature="0"
         id="path3694"
         d="m 145.83846,73.038927 -0.0439,-5.75 -1.28333,-3.590205 c -0.70583,-1.974612 -2.48608,-5.167088 -3.95611,-7.094391 -1.47002,-1.927302 -2.67277,-3.85431 -2.67277,-4.28224 l 0,-0.778053 1.5,1.244889 1.5,1.244889 0,-1.216064 0,-1.216064 -2.04459,-0.534673 -2.0446,-0.534674 -7.41301,-12.621707 c -4.07715,-6.941939 -9.50417,-15.912126 -12.06003,-19.933748 -2.55586,-4.021623 -4.46376,-7.495299 -4.23978,-7.719281 0.22398,-0.223981 4.88356,6.642071 10.35462,15.257895 l 9.94739,15.665135 5.50791,5.677012 5.50791,5.677013 5.17295,0.711462 5.17294,0.711462 4.56915,-4.211689 c 2.51303,-2.316428 4.56914,-4.594729 4.56914,-5.062889 l 0,-0.851201 -2.42244,1.103736 -2.42243,1.103736 -4.58703,-0.687866 -4.58702,-0.687866 -7.88051,-3.944324 -7.88052,-3.944323 -3.61003,-3.995866 -3.61002,-3.995867 0,-3.092827 0,-3.092827 1.69875,-2.875751 1.69875,-2.87575 2.95047,-1.028542 2.95048,-1.028541 4.32226,0 4.32226,0 5.51561,2.439261 c 3.03358,1.341594 7.08942,3.639676 9.01299,5.106849 l 3.49738,2.667587 2.01553,3.261186 2.01552,3.261185 0,3.066866 c 0,1.686777 -0.47831,4.333662 -1.06291,5.881966 l -1.06291,2.8151 0.86808,-1 c 1.66862,-1.922191 6.05039,-8.10435 14.1226,-19.925322 4.47433,-6.552216 8.13514,-11.66052 8.13514,-11.351788 0,0.308732 -2.3625,4.407797 -5.25,9.109034 -2.8875,4.701236 -8.12556,13.299786 -11.64014,19.107889 -3.51458,5.808103 -6.57864,10.560187 -6.80902,10.560187 -0.23038,0 -0.11014,-0.5625 0.26721,-1.25 0.37735,-0.6875 -0.63161,0.1 -2.24213,1.75 -3.24177,3.321249 -3.49836,4.87102 -0.33205,2.005548 2.72245,-2.463784 2.52127,-1.241101 -0.56253,3.418838 l -2.56866,3.881506 -1.43134,4.755985 -1.43134,4.755985 0,4.841069 0,4.841069 -1.11285,0 -1.11284,0 0.38346,-6.786281 0.38345,-6.786281 -3.02061,0.03628 -3.02061,0.03628 -0.29569,6.75 -0.29569,6.75 -0.95431,0 -0.95431,0 -0.0439,-5.75 z m 9.04389,-16.25 1.5,-0.969374 -6,0 -6,0 1.5,0.969374 1.5,0.969374 3,0 3,0 1.5,-0.969374 z m -1.17506,-23.289059 1.06982,-1.289059 -1.20527,-2.460941 -1.20528,-2.460941 -3.72328,-1.823363 -3.72328,-1.823363 -1.92644,0.61143 -1.92645,0.61143 -0.58879,1.534375 -0.5888,1.534375 1.02156,1.908794 1.02155,1.908793 2.72486,1.478727 2.72486,1.478727 2.62755,0.04004 2.62756,0.04004 1.06983,-1.289059 z m -2.32494,-17.052283 -16,-8.158658 0,-2 0,-2 5.39253,0.148232 5.39253,0.148232 9.10747,4.547733 9.10747,4.547732 3.75,3.126839 3.75,3.12684 0,2.427196 0,2.427196 -2.25,-0.09134 -2.25,-0.09134 -16,-8.158658 z m 38.5,-9.658658 c 0.5887,-1.1 1.29537,-2 1.57037,-2 0.275,0 0.0183,0.9 -0.57037,2 -0.5887,1.1 -1.29537,2 -1.57037,2 -0.275,0 -0.0183,-0.9 0.57037,-2 z M 106.85268,0.733488 c -0.60502,-1.130491 -0.95835,-2.3825033 -0.78518,-2.7822489 l 0.31485,-0.7268102 3,0.6639343 3,0.6639342 -2.36663,0.1183148 -2.36663,0.1183148 0.52301,2 c 0.67474,2.580225 0.0777,2.55514 -1.31942,-0.05544 z m 87.38139,-0.704642 0.66074,-1.069099 -1.25623,-0.5064624 -1.25623,-0.5064629 1.75,-0.078947 1.75,-0.078947 0,0.940983 c 0,0.517541 -0.51953,1.262069 -1.15451,1.654509 l -1.15451,0.713525 0.66074,-1.069098 z"
         style="fill:#a8a8a8" />
      <path
         inkscape:connector-curvature="0"
         id="path3692"
         d="m 145.83846,73.038927 -0.0439,-5.75 -1.28333,-3.590205 c -0.70583,-1.974612 -2.48608,-5.167088 -3.95611,-7.094391 -1.47002,-1.927302 -2.67277,-3.85431 -2.67277,-4.28224 l 0,-0.778053 1.34201,1.113768 1.34201,1.113769 0.65267,-0.652675 0.65268,-0.652676 -3.37572,-2.293862 -3.37573,-2.293863 -6.56243,-11.294786 c -3.60934,-6.212132 -8.39665,-14.173507 -10.63847,-17.691944 -2.24182,-3.518438 -3.90185,-6.571346 -3.68895,-6.784241 0.21289,-0.212895 4.83417,6.635208 10.2695,15.218006 l 9.88243,15.605087 5.67576,5.429153 5.67576,5.429153 4.86603,0 4.86603,0 4.20821,-4.287852 c 2.31452,-2.358318 4.20821,-4.59718 4.20821,-4.975249 l 0,-0.687397 -2.75,1.048587 -2.75,1.048588 -4.25946,-0.63603 -4.25946,-0.636029 -7.88051,-3.944324 -7.88052,-3.944323 -3.72434,-4.122396 -3.72433,-4.122395 0.53962,-4.023172 0.53962,-4.023171 2.48565,-2.485656 2.48566,-2.485656 4.9796,-0.478477 4.97961,-0.478476 5.00891,1.663694 5.00891,1.663694 4.46984,2.960697 4.46984,2.960697 2.63068,3.796074 2.63068,3.796073 0,3.261991 0,3.261991 -1.08102,2.019905 c -0.59456,1.110948 -0.87838,2.222544 -0.63071,2.470213 0.24767,0.24767 4.22163,-5.020689 8.83102,-11.707464 4.60939,-6.686775 9.16369,-13.115454 10.12066,-14.285955 1.81239,-2.216793 -4.79075,9.305511 -12.92624,22.555936 l -4.71789,7.684118 -0.96785,-0.598163 -0.96785,-0.598163 0.65849,1.715983 0.65848,1.715983 -0.83009,-0.513026 -0.8301,-0.513027 -3.35462,3.461089 -3.35461,3.461088 1.04118,0 c 0.57264,0 1.85816,-0.902759 2.8567,-2.006131 2.88816,-3.191383 2.88857,-1.546545 7e-4,2.81732 l -2.64357,3.994703 -1.43134,4.755985 -1.43134,4.755985 0,4.841069 0,4.841069 -1.11285,0 -1.11284,0 0.39553,-7 0.39554,-7 -3.28269,0 -3.28269,0 0,7 0,7 -1,0 -1,0 -0.0439,-5.75 z m 9.87668,-16.125499 1.3328,-0.844874 -4.95532,-0.657346 -4.95532,-0.657346 -1.80436,0.692399 -1.80436,0.692398 1.92688,0.754849 c 1.05979,0.415167 3.50189,0.779586 5.42689,0.809821 l 3.5,0.05497 1.33279,-0.844873 z m -1.79446,-23.670682 1.28321,-1.546181 -2.00136,-2.703819 -2.00136,-2.703819 -4.24181,-1.497555 -4.24181,-1.497555 -1.4465,1.978213 -1.44651,1.978212 0.28583,1.484174 0.28582,1.484174 3.39097,2.285169 3.39096,2.285168 2.72967,0 2.72967,0 1.28322,-1.546181 z m -2.03833,-16.785438 -16.5,-8.168381 0,-2 0,-2 2.78253,-0.319561 2.78253,-0.319562 5.21747,1.678768 c 6.34329,2.041011 16.87704,7.632584 21.96747,11.66087 l 3.75,2.967544 0,2.41597 0,2.415971 -1.75,-0.08162 c -0.9625,-0.04489 -9.175,-3.757391 -18.25,-8.25 z m -46,-17.7620006 0,-0.9063804 2,0 c 1.1,0 2,0.1725159 2,0.3833686 0,0.2108528 -0.9,0.6187244 -2,0.9063804 l -2,0.523012 0,-0.9063806 z"
         style="fill:#979797" />
      <path
         inkscape:connector-curvature="0"
         id="path3690"
         d="m 145.83846,73.038927 -0.0439,-5.75 -1.28333,-3.590205 c -0.70583,-1.974612 -2.48608,-5.167088 -3.95611,-7.094391 -1.47002,-1.927302 -2.67277,-3.85431 -2.67277,-4.28224 l 0,-0.778053 1.52417,1.264945 1.52416,1.264945 0.55184,-0.551843 0.55185,-0.551843 -4.37903,-4.036445 -4.37903,-4.036446 -6.18305,-10.804212 c -3.40068,-5.942317 -7.13352,-12.266712 -8.29519,-14.054212 -1.16167,-1.7875 -1.87993,-3.25 -1.59614,-3.25 0.2838,0 4.161,5.803851 8.61601,12.897447 l 8.10002,12.897447 5.02305,5.266612 5.02305,5.266612 3.70914,0.720942 3.70915,0.720942 -3.75,0.114999 -3.75,0.114999 0,0.893011 c 0,1.343641 2.68191,2.108759 7.33179,2.091676 l 4.16821,-0.01531 1.5,-0.969374 1.5,-0.969374 -2.30902,-0.01531 -2.30901,-0.01531 0.64317,-1.040677 0.64317,-1.040678 1.87807,0.596077 1.87807,0.596076 1.96278,-1.050445 1.96277,-1.050445 -3.05314,5.919934 -3.05315,5.919934 -0.50622,7.075112 -0.50623,7.075112 -1,0 -1,0 0.50462,-7.05263 0.50461,-7.05263 -3.62024,0.30263 -3.62025,0.30263 0.35225,6.75 0.35225,6.75 -1.10225,0 -1.10225,0 -0.0439,-5.75 z m 11.04389,-19.861111 c 0,-0.374814 1.93032,-2.753146 4.28959,-5.285184 2.35928,-2.532038 7.61391,-9.328705 11.67695,-15.103705 4.06304,-5.775 7.84027,-10.95 8.39385,-11.5 l 1.0065,-1 -1.48283,2.5 c -0.81556,1.375 -3.91289,6.647719 -6.88296,11.717154 -2.97007,5.069435 -5.59583,9.021445 -5.83504,8.782245 -0.2392,-0.2392 -1.96383,1.567462 -3.83251,4.014805 -1.86869,2.447342 -4.2832,4.923665 -5.36558,5.502939 l -1.96797,1.053225 0,-0.681479 z m -7.74486,-9.348631 c -2.88467,-1.038175 -7.71169,-3.298969 -10.7267,-5.023987 l -5.48185,-3.136396 -3.0233,-3.667781 -3.02329,-3.667782 0.004,-2.522156 0.004,-2.522156 1.99672,-3.274926 1.99672,-3.274925 2.56464,-0.975075 2.56464,-0.975074 3.91466,0 3.91467,0 4.27023,1.670851 c 2.34863,0.918969 6.35166,3.012541 8.89561,4.652384 l 4.62537,2.981533 2.62463,4.047784 2.62463,4.047785 0,2.849491 0,2.849492 -1.5479,2.993301 -1.54789,2.993301 -2.51721,0.957039 c -3.57937,1.360875 -6.15619,1.1479 -12.13186,-1.002703 z m 5.26761,-11.111922 0.65752,-2.071663 -1.83778,-2.030716 c -2.32949,-2.574064 -6.64931,-4.825957 -9.25765,-4.825957 l -2.01447,0 -1.11219,2.078141 -1.11219,2.07814 0.54343,1.416136 c 0.29888,0.778875 2.02103,2.31703 3.827,3.418121 l 3.28358,2.001986 3.18261,0.0037 3.18261,0.0037 0.65752,-2.071664 z m -2.52275,-16.259037 -16.5,-8.169299 -0.31644,-1.714272 -0.31645,-1.714271 2.7969,-0.701976 2.79689,-0.701976 6.51955,2.266942 c 7.93932,2.760616 17.88782,8.205941 21.98561,12.033848 l 3.03394,2.834125 0,2.09879 0,2.09879 -1.75,-0.0807 c -0.9625,-0.04439 -9.175,-3.756886 -18.25,-8.25 z"
         style="fill:#868686" />
      <path
         inkscape:connector-curvature="0"
         id="path3688"
         d="m 145.67511,71.538927 -0.47026,-7.25 -1.66605,-3 c -0.91632,-1.65 -2.39377,-4.0125 -3.28322,-5.25 l -1.61717,-2.25 5.37197,0.150194 5.37197,0.150193 -4.47382,0.599807 -4.47382,0.599806 2.77087,1.25 2.77088,1.25 4.37116,0 c 2.40413,0 5.08037,-0.272153 5.9472,-0.604785 l 1.57604,-0.604785 -0.65458,-1.145215 -0.65458,-1.145215 0.79181,0.714816 0.79181,0.714816 1.98421,-1.061921 1.98422,-1.061922 -0.41674,0.847105 c -0.22921,0.465909 -1.47389,3.089856 -2.76596,5.830995 l -2.34921,4.983889 -0.48411,6.766111 -0.48412,6.766111 -0.90733,0 -0.90733,0 0.65663,-7.25 0.65663,-7.25 -3.86493,0 -3.86493,0 0.20049,7.25 0.20049,7.25 -0.81898,0 -0.81899,0 -0.47025,-7.25 z m 10.20724,-11.75 1.5,-0.969374 -2.19098,-0.01531 -2.19099,-0.01531 -0.61803,1 -0.61803,1 1.30901,-0.01531 c 0.71996,-0.0084 1.98402,-0.451534 2.80902,-0.98469 z m -6.26903,-0.692991 c -0.97297,-0.253543 -2.32297,-0.236869 -3,0.03705 l -1.23097,0.498046 3,-0.03705 3,-0.03705 -1.76903,-0.460988 z m 8.26903,-6.745291 c 0,-0.241055 1.38791,-1.928555 3.08424,-3.75 1.69634,-1.821445 6.23876,-7.699218 10.09428,-13.061718 3.85552,-5.3625 7.24437,-9.75 7.53077,-9.75 0.2864,0 -0.26465,1.198647 -1.22457,2.663659 -0.95991,1.465013 -2.68375,4.277513 -3.83076,6.25 -1.14701,1.972488 -2.6361,4.036341 -3.30909,4.586341 -0.67299,0.55 -3.27496,3.8125 -5.78217,7.25 l -4.55857,6.25 -1.00206,0 c -0.55114,0 -1.00207,-0.197227 -1.00207,-0.438282 z m -19.39096,-2.654607 c -2.75366,-2.166029 -10.20626,-12.5248 -11.25016,-15.637215 l -0.59363,-1.769896 3.753,5.411939 c 2.06415,2.976567 5.70512,7.364067 8.09106,9.75 4.54699,4.54699 4.54683,5.821925 -2.7e-4,2.245172 z m 12.89096,-5.313661 c -2.2,-0.700018 -7.20134,-2.894774 -11.1141,-4.877236 l -7.11409,-3.604477 -2.6362,-3.132941 -2.63619,-3.13294 -0.65581,-2.612939 -0.6558,-2.612938 1.90609,-3.536102 1.9061,-3.536103 2.5,-1.323376 2.5,-1.323376 5.55578,0.437049 5.55577,0.43705 6.00421,3.030916 6.00421,3.030916 3.66464,4.056312 3.66463,4.056312 0.65653,2.615804 0.65652,2.615805 -1.19451,3.986907 -1.1945,3.986908 -3.40452,1.4225 c -4.02439,1.681496 -4.73076,1.682626 -9.96876,0.01595 z m 1.68261,-9.516939 c 0.37544,-0.04208 0.94814,-0.913116 1.27268,-1.935634 l 0.59006,-1.859122 -0.64601,-1.683474 -0.64601,-1.683475 -3.95344,-2.016893 -3.95343,-2.016894 -2.0711,0.309491 -2.0711,0.30949 -1.09702,1.75 -1.09701,1.75 1.09077,1.75 c 0.59992,0.9625 2.79224,2.714299 4.87181,3.892887 l 3.78104,2.142887 1.62308,-0.316376 c 0.89269,-0.174006 1.93025,-0.350806 2.30568,-0.392887 z m -30.18261,-8.076511 c -0.5887,-1.1 -0.84537,-2 -0.57037,-2 0.275,0 0.98167,0.9 1.57037,2 0.5887,1.1 0.84537,2 0.57037,2 -0.275,0 -0.98167,-0.9 -1.57037,-2 z m 28.75,-10.558725 -16.75,-8.452835 0,-0.79422 c 0,-0.436821 0.54,-1.33422 1.2,-1.99422 l 1.2,-1.2 2.05,5.04e-4 c 2.82201,6.94e-4 11.70232,3.461305 19.86137,7.739875 l 6.81136,3.571852 2.93864,2.745094 2.93863,2.745095 0,2.09879 0,2.09879 -1.75,-0.05295 -1.75,-0.05294 -16.75,-8.452836 z m -33.75,2.558725 c -0.5887,-1.1 -0.84537,-2 -0.57037,-2 0.275,0 0.98167,0.9 1.57037,2 0.5887,1.1 0.84537,2 0.57037,2 -0.275,0 -0.98167,-0.9 -1.57037,-2 z"
         style="fill:#777777" />
      <path
         inkscape:connector-curvature="0"
         id="path3686"
         d="m 146.07802,73.788927 -0.20682,-5.5 -1.17638,-4 c -0.647,-2.2 -1.09032,-4.350022 -0.98514,-4.777826 0.10517,-0.427804 -0.50045,-1.043246 -1.34584,-1.367649 -0.84538,-0.324402 -2.04003,-1.549381 -2.65478,-2.722174 l -1.11773,-2.132351 2.20211,1.956211 2.20211,1.956211 6.53252,0.415959 6.53252,0.41596 2.91088,-2.152108 c 3.37072,-2.492086 3.67301,-1.983467 1.04208,1.753397 -2.49203,3.539563 -3.22133,6.121885 -4.11093,14.555984 l -0.74871,7.098386 -0.13578,-7.75 -0.13578,-7.75 -3.95794,0 -3.95793,0 -0.34082,7.75 -0.34082,7.75 -0.20682,-5.5 z m 9.3632,-13.468197 1.94113,-1.468196 -6.5,0.118028 -6.5,0.118029 2.76695,0.418226 2.76696,0.418227 -0.57597,0.931941 -0.57597,0.931942 2.36788,0 2.36789,0 1.94113,-1.468197 z m -12.30887,-6.221129 c 0.9625,-0.251527 2.5375,-0.251527 3.5,0 l 1.75,0.457323 -3.5,0 -3.5,0 1.75,-0.457323 z m 18.726,-6.167162 c 5.40509,-6.41012 6.28143,-6.633461 1.85646,-0.473133 l -3.35474,4.67038 -1.4194,0.473133 -1.41939,0.473133 4.33707,-5.143513 z m -22.72173,2.106488 c -2.21988,-1.97468 -8.54929,-9.967346 -9.7008,-12.25 -0.41618,-0.825 0.50462,0.075 2.04622,2 1.54161,1.925 4.67812,5.4125 6.97004,7.75 4.08027,4.16143 4.57229,5.958325 0.68454,2.5 z m 14.11461,-5.36049 -4.13111,-0.744628 -7.07706,-3.563951 -7.07706,-3.56395 -3.52756,-3.527557 -3.52756,-3.527558 -0.61929,-2.467465 -0.61929,-2.467465 1.94523,-3.763468 1.94524,-3.763468 2.40979,-1.299449 2.40979,-1.29945 5.74766,0.533873 5.74766,0.533872 5.81232,2.934053 5.81233,2.934054 3.66464,4.056312 3.66463,4.056312 0.65653,2.615804 0.65652,2.615805 -1.15871,3.867425 c -1.25867,4.201071 -1.79882,4.737684 -5.88615,5.847605 l -2.71743,0.737922 -4.13112,-0.744628 z m 0.0874,-10.233919 1.83859,-1.344409 -0.64578,-2.572994 -0.64578,-2.572994 -3.36971,-2.082597 -3.36971,-2.082597 -2.43196,0 -2.43197,0 -1.2,1.2 c -0.66,0.66 -1.2,1.940256 -1.2,2.845012 l 0,1.645013 2.09057,1.891938 c 2.12687,1.92479 6.5493,4.189625 8.4683,4.336818 0.58238,0.04467 1.88624,-0.523765 2.89746,-1.26319 z m 20.1785,-1.655591 c 4.52003,-6.684036 6.32737,-8.691818 3.75728,-4.173978 -1.04066,1.829313 -3.14862,4.754313 -4.68436,6.5 l -2.79226,3.173978 3.71934,-5.5 z m -21.38482,-16.525331 -17.25,-8.439286 0,-0.895247 c 0,-0.492386 0.70984,-1.484361 1.57742,-2.204389 l 1.57742,-1.309143 4.67258,1.230875 c 6.13362,1.615749 16.34706,6.400095 22.78483,10.673244 l 5.15569,3.422152 0.61603,1.60535 c 0.33882,0.882943 0.61603,2.243546 0.61603,3.023562 l 0,1.418213 -1.25,-0.04302 c -0.6875,-0.02366 -9.0125,-3.840701 -18.5,-8.482309 z"
         style="fill:#686868" />
      <path
         inkscape:connector-curvature="0"
         id="path3684"
         d="m 146.0397,73.288927 -0.24514,-6 -1.33085,-3.728432 -1.33086,-3.728432 2.37475,0.19654 2.37475,0.19654 0,0.781892 0,0.781892 3.25,-0.0318 3.25,-0.0318 1.94113,-1.468196 1.94113,-1.468204 -6.94113,-0.07028 -6.94113,-0.07029 -1.99426,-0.778482 -1.99426,-0.778482 8.29021,0.479913 8.29021,0.479913 2.45405,-2.30546 2.45405,-2.305459 0,1.115297 c 0,0.613413 -0.49592,1.421789 -1.10203,1.796391 -0.60612,0.374602 -1.78945,2.31366 -2.62962,4.309017 l -1.52759,3.627923 -0.73051,7.5 -0.73051,7.5 -0.13987,-7.75 -0.13987,-7.75 -3.95794,0 -3.95793,0 -0.34082,7.75 -0.34082,7.75 -0.24514,-6 z m -3.40735,-19.162281 1.25,-0.504386 1.25,0.504386 1.25,0.504386 -2.5,0 -2.5,0 1.25,-0.504386 z m 15.25,-1.682013 c 0,-0.154838 1.41193,-1.603215 3.13763,-3.218615 l 3.13763,-2.937091 -1.69762,2.666032 c -1.38059,2.168146 -4.57764,4.605356 -4.57764,3.489674 z m -9.02885,-9.097254 c -1.94086,-0.715344 -5.86332,-2.483595 -8.71657,-3.929446 l -5.18773,-2.628822 -3.51916,-3.519159 -3.51916,-3.519159 -0.59363,-2.365207 -0.59363,-2.365208 2.05623,-4.030538 2.05623,-4.030538 3.59812,-1.187487 3.59812,-1.187486 4.18187,0.62711 4.18187,0.62711 5.05854,2.343656 5.05854,2.343656 3.73569,3.279977 3.73569,3.279977 1.52149,2.942243 1.52149,2.942243 -0.66908,3.960268 -0.66908,3.960267 -2.09206,1.949045 -2.09205,1.949046 -4.56144,-0.07046 -4.56144,-0.07046 -3.52885,-1.300624 z m 4.48518,-8.902861 1.83859,-1.344409 -0.6743,-2.68661 -0.6743,-2.68661 -3.22316,-1.991016 -3.22316,-1.991015 -2.89915,0.272034 -2.89915,0.272035 -1.05467,1.684899 -1.05467,1.684899 1.34588,2.51481 1.34589,2.51481 3.60793,1.498763 c 4.54226,1.886885 5.30054,1.912689 7.56427,0.25741 z m -1.20633,-18.217925 -17.25,-8.377535 0,-0.994882 c 0,-0.547185 0.81621,-1.431706 1.81381,-1.965602 l 1.81381,-0.970721 4.25174,0.955303 c 8.43526,1.895277 22.98024,9.511955 27.40653,14.3518 l 1.78589,1.952749 -0.28589,1.472745 c -0.15724,0.810009 -0.73589,1.580955 -1.28589,1.713211 -0.55,0.132257 -8.7625,-3.529424 -18.25,-8.137068 z"
         style="fill:#575757" />
      <path
         inkscape:connector-curvature="0"
         id="path3682"
         d="m 146.0773,72.288927 -0.0371,-3 0.49804,1.230968 c 0.27392,0.677033 0.2906,2.027033 0.0371,3 l -0.46099,1.769032 -0.037,-3 z m 8.92849,-2.5 0.29553,-5.5 -4.20948,-0.307498 -4.20949,-0.307498 0,1.757498 0,1.757498 -0.87089,-0.95 c -0.47899,-0.5225 -1.16257,-2.1875 -1.51905,-3.7 l -0.64816,-2.75 0.96003,0 c 0.52802,0 1.23815,0.45 1.57807,1 l 0.61803,1 4.99064,0 4.99064,0 -0.68219,6.25 c -0.86233,7.900361 -1.68388,9.011692 -1.29368,1.75 z m -7.89135,-11.714526 c 1.50265,-0.228174 4.20265,-0.232767 6,-0.0102 l 3.26791,0.404652 -6,0.0102 -6,0.0102 2.73209,-0.414862 z m 10.76791,-0.05604 c 0,-0.558501 0.675,-1.274478 1.5,-1.59106 0.825,-0.316583 1.5,-0.419828 1.5,-0.229434 0,0.190394 -0.675,0.906371 -1.5,1.59106 l -1.5,1.244889 0,-1.015455 z m -16.72917,-0.833601 0.60417,-0.604166 1.3125,0.525219 1.3125,0.525219 -1.91667,0.07895 -1.91666,0.07895 0.60416,-0.604167 z m 19.72917,-7.895833 c 1.29174,-1.375 2.57363,-2.5 2.84863,-2.5 0.275,0 -0.55689,1.125 -1.84863,2.5 -1.29175,1.375 -2.57363,2.5 -2.84863,2.5 -0.275,0 0.55688,-1.125 1.84863,-2.5 z M 145.33123,41.515806 C 134.24925,36.429537 128.47429,31.837208 127.27174,27.154653 l -0.54812,-2.134275 2.08013,-4.077387 2.08013,-4.077388 4.15846,-1.119758 4.15846,-1.119757 3.59078,0.660445 c 1.97492,0.363244 5.57992,1.533487 8.01111,2.600539 l 4.42034,1.940094 4.19521,3.437656 4.19521,3.437656 1.66012,3.498453 1.66012,3.498453 -1.11411,4.424554 -1.11412,4.424554 -2.45861,1.120218 -2.45861,1.120217 -3.70294,-0.01844 -3.70295,-0.01844 -7.05112,-3.236235 z m 8.50544,-7.171837 1.19921,-1.444958 -0.32677,-2.27068 -0.32676,-2.27068 -3.39788,-2.284362 -3.39789,-2.284362 -2.72967,0 -2.72967,0 -1.19921,1.444958 -1.19921,1.444958 0.32677,2.27801 0.32676,2.278011 4,2.260581 4,2.260581 2.12755,0.01645 2.12756,0.01645 1.19921,-1.444958 z m 0.46146,-17.214341 -15.91578,-7.572413 -1.93574,-1.847659 -1.93574,-1.84766 2.43574,-0.90477 2.43574,-0.90477 5,1.477576 c 2.75,0.812667 8.15,2.972963 12,4.800658 l 7,3.323082 4.25,3.645551 4.25,3.64555 0,1.36306 c 0,0.749683 -0.3754,1.595068 -0.83422,1.878634 l -0.83421,0.515573 -15.91579,-7.572412 z"
         style="fill:#484848" />
      <path
         inkscape:connector-curvature="0"
         id="path3680"
         d="m 155.04024,68.788927 0,-2.5 0.50439,1.25 0.50439,1.25 -0.50439,1.25 -0.50439,1.25 0,-2.5 z m 0.84211,-3.912102 0,-0.912102 -4.12374,-0.696702 -4.12374,-0.696701 -0.82189,1.329843 c -0.98539,1.594395 -1.44487,1.193147 -2.4188,-2.112236 l -0.73662,-2.5 1.31239,1.25 1.3124,1.25 5.3,0 5.3,0 0,2 c 0,1.1 -0.225,2 -0.5,2 -0.275,0 -0.5,-0.410446 -0.5,-0.912102 z m -5,-21.026379 c -1.375,-0.421617 -5.425,-2.230513 -9,-4.01977 l -6.5,-3.253194 -2.83928,-2.644278 c -1.5616,-1.454352 -3.47709,-3.865206 -4.25663,-5.357452 l -1.41736,-2.713175 1.55876,-3.895745 1.55877,-3.895744 2.6034,-1.391081 2.6034,-1.39108 5.09447,0.107796 5.09447,0.107796 4.96732,2.199822 4.96733,2.199823 4.14822,3.399157 4.14823,3.399157 1.67602,3.531967 1.67603,3.531967 -1.07026,3.974646 -1.07026,3.974645 -2.19382,1.536612 -2.19382,1.536612 -3.5275,-0.08595 c -1.94012,-0.04727 -4.65249,-0.430912 -6.02749,-0.852528 z m 2.8,-9.261519 1.2,-1.2 0,-2.125686 0,-2.125686 -2.29302,-2.15418 c -1.26116,-1.184798 -3.70426,-2.646142 -5.42912,-3.24743 l -3.1361,-1.093252 -2.12929,1.139557 -2.12928,1.139557 0.30841,3.158844 0.3084,3.158844 4,2.258266 4,2.258265 2.05,0.01645 2.05,0.01645 1.2,-1.2 z m -0.59999,-18.259011 -17.20001,-8.458988 0,-1.66823 0,-1.66823 4.94235,0.474897 4.94234,0.474897 8.80766,4.225386 c 9.7052,4.655976 14.70233,8.079706 16.38686,11.227286 l 1.10607,2.066712 -0.89263,0.892629 -0.89263,0.892629 -17.20001,-8.458988 z"
         style="fill:#373737" />
      <path
         inkscape:connector-curvature="0"
         id="path3678"
         d="m 150.38235,43.38475 c -10.24948,-3.255199 -19.1977,-9.260784 -22.11226,-14.840609 l -1.43371,-2.744786 2.08021,-4.07755 2.08021,-4.07755 3.0531,-1.283731 3.0531,-1.283732 4.13967,0.433067 4.13968,0.433066 6.09081,2.795967 6.09081,2.795967 4.06173,4.227056 4.06174,4.227056 0.50037,2.617528 0.50037,2.617528 -1.15292,3.504668 -1.15291,3.504669 -2.5,1.26304 -2.5,1.263039 -2.5,-0.05215 c -1.375,-0.02868 -4.3,-0.623827 -6.5,-1.322539 z m 3.3,-8.795823 1.2,-1.2 -0.0318,-2.05 -0.0318,-2.05 -1.32068,-1.739391 -1.32068,-1.739391 -3.72092,-1.554699 -3.72092,-1.554699 -1.92766,0.611814 -1.92766,0.611815 -0.88077,1.682276 -0.88077,1.682275 0.83115,2.20011 0.83116,2.20011 3.80068,2.005694 c 2.09037,1.103132 4.72318,2.025582 5.85068,2.04989 l 2.04999,0.0442 1.2,-1.2 z m -1.55,-18.787314 -16.25,-7.867045 0,-1.57282 0,-1.572821 2.84345,0 2.84345,0 5.68185,1.954843 c 3.12502,1.075164 8.44965,3.430068 11.83253,5.23312 l 6.15067,3.278278 3.32403,3.134956 c 1.82821,1.724227 3.32402,3.644322 3.32402,4.26688 l 0,1.131923 -1.75,-0.06014 c -0.9625,-0.03307 -9.0625,-3.600304 -18,-7.927179 z"
         style="fill:#272727" />
      <path
         inkscape:connector-curvature="0"
         id="path3676"
         d="m 148.67821,42.343177 c -3.46272,-1.21746 -7.87086,-3.019494 -9.79586,-4.004518 l -3.5,-1.790955 -3.75,-3.963241 -3.75,-3.963242 0,-2.465807 0,-2.465807 1.51035,-2.920696 1.51035,-2.920695 1.98014,-1.059738 1.98014,-1.059739 3.25951,-0.113612 c 1.79273,-0.06249 4.83451,0.225805 6.75951,0.64065 l 3.5,0.754263 5.5,3.315443 c 6.28504,3.788669 10.47553,7.852161 11.79909,11.441481 l 0.91377,2.478037 -0.94436,3.521963 c -0.5194,1.93708 -1.4673,4.044668 -2.10643,4.68353 l -1.16207,1.161567 -3.70414,0.47234 -3.70415,0.472341 -6.29585,-2.213565 z m 6.10629,-8.80425 0.8377,-2.25 -0.70415,-2 -0.70415,-2 -4.47197,-2.407051 -4.47196,-2.407052 -2.62716,0.659376 -2.62716,0.659375 -0.59757,1.882767 -0.59756,1.882768 1.1503,2.524653 1.15031,2.524653 3.63061,1.493076 c 1.99684,0.821192 4.88261,1.536807 6.41283,1.590256 l 2.78223,0.09718 0.8377,-2.25 z m -2.40215,-17.915645 c -8.8,-4.433045 -16.195,-8.241793 -16.43333,-8.463885 -0.23834,-0.222092 0.10179,-0.938932 0.75584,-1.592979 l 1.18917,-1.189176 4.32663,1.157197 c 7.73572,2.068989 15.27037,5.223394 20.26697,8.484826 4.80543,3.13665 9.39109,7.539811 9.3935,9.019662 l 10e-4,0.75 -1.75,-0.05278 -1.75,-0.05278 -16,-8.060082 z"
         style="fill:#121212" />
    </g>
  </g>
</svg>
